<svg width="312" height="90" xmlns="http://www.w3.org/2000/svg" xmlns:xlink="http://www.w3.org/1999/xlink" overflow="hidden"><defs><clipPath id="clip0"><rect x="560" y="222" width="312" height="90"/></clipPath><linearGradient x1="-0.24498" y1="40.2982" x2="130.183" y2="56.3456" gradientUnits="userSpaceOnUse" spreadMethod="pad" id="fill1"><stop offset="0" stop-color="#ED3331"/><stop offset="0.2543" stop-color="#EB912B"/><stop offset="0.3214" stop-color="#EBAB2A"/><stop offset="0.6556" stop-color="#00A361"/><stop offset="0.9989" stop-color="#4B80C1"/><stop offset="1" stop-color="#4B80C1"/></linearGradient></defs><g clip-path="url(#clip0)" transform="translate(-560 -222)"><path d="M135.36 31.98 135.36 16.44 141.42 16.44C144.12 16.44 145.56 18.12 145.56 20.76 145.56 23.4 144.12 25.14 141.42 25.14L136.68 25.14 136.68 31.98 135.36 31.98ZM136.68 24 141.42 24C143.22 24 144.18 22.86 144.18 21.36L144.18 20.28C144.18 18.78 143.22 17.64 141.42 17.64L136.68 17.64 136.68 24Z" fill="#212221" transform="matrix(1.01167 0 0 1 560.121 222)"/><path d="M157.5 31.98 155.82 27.18 149.22 27.18 147.54 31.98 146.22 31.98 151.74 16.44 153.48 16.44 159 31.98 157.5 31.98ZM152.58 17.7 152.52 17.7 149.58 25.98 155.52 25.98 152.58 17.7Z" fill="#212221" transform="matrix(1.01167 0 0 1 560.121 222)"/><path d="M160.44 29.58 161.4 28.8C162.48 30.24 163.8 31.08 165.84 31.08 168.24 31.08 169.56 29.88 169.56 27.84 169.56 25.92 168.42 25.2 166.44 24.78L165.06 24.48C162.12 23.88 160.86 22.5 160.86 20.34 160.86 17.64 162.84 16.2 165.84 16.2 168.18 16.2 169.74 17.1 170.76 18.6L169.74 19.32C168.9 18.12 167.64 17.4 165.78 17.4 163.56 17.4 162.18 18.36 162.18 20.28 162.18 22.14 163.44 22.86 165.36 23.22L166.74 23.52C169.8 24.18 170.94 25.62 170.94 27.78 170.94 30.6 169.02 32.28 165.84 32.28 163.26 32.22 161.64 31.2 160.44 29.58Z" fill="#212221" transform="matrix(1.01167 0 0 1 560.121 222)"/><path d="M172.86 29.58 173.88 28.74C174.96 30.18 176.28 31.02 178.32 31.02 180.72 31.02 182.04 29.82 182.04 27.78 182.04 25.86 180.9 25.14 178.92 24.72L177.54 24.42C174.6 23.82 173.34 22.44 173.34 20.28 173.34 17.58 175.32 16.14 178.32 16.14 180.66 16.14 182.22 17.04 183.24 18.54L182.22 19.26C181.38 18.06 180.12 17.34 178.26 17.34 176.04 17.34 174.66 18.3 174.66 20.22 174.66 22.08 175.92 22.8 177.84 23.16L179.22 23.46C182.28 24.12 183.42 25.56 183.42 27.72 183.42 30.54 181.5 32.22 178.32 32.22 175.74 32.22 174.06 31.2 172.86 29.58Z" fill="#212221" transform="matrix(1.01167 0 0 1 560.121 222)"/><path d="M135.6 35.64 141.42 35.64C145.56 35.64 148.26 38.22 148.26 43.38 148.26 48.54 145.56 51.12 141.42 51.12L135.6 51.12 135.6 35.64ZM141.42 48.18C143.4 48.18 144.66 47.1 144.66 44.64L144.66 42.24C144.66 39.78 143.4 38.7 141.42 38.7L138.96 38.7 138.96 48.24 141.42 48.24Z" fill="#212221" transform="matrix(1.01167 0 0 1 560.121 222)"/><path d="M159.54 51.18C158.34 51.18 157.5 50.4 157.32 49.14L157.2 49.14C156.84 50.64 155.58 51.48 153.78 51.48 151.44 51.48 150.18 50.1 150.18 48.06 150.18 45.6 152.1 44.4 155.16 44.4L157.02 44.4 157.02 43.68C157.02 42.54 156.48 41.82 155.1 41.82 153.78 41.82 153.12 42.48 152.58 43.2L150.6 41.46C151.56 40.08 152.88 39.24 155.34 39.24 158.64 39.24 160.32 40.74 160.32 43.5L160.32 48.6 161.4 48.6 161.4 51.18 159.54 51.18ZM156.96 47.64 156.96 46.26 155.34 46.26C154.08 46.26 153.42 46.74 153.42 47.58L153.42 47.94C153.42 48.78 153.96 49.2 154.98 49.2 156.06 49.14 156.96 48.72 156.96 47.64Z" fill="#212221" transform="matrix(1.01167 0 0 1 560.121 222)"/><path d="M167.52 51.18C165.24 51.18 164.04 49.98 164.04 47.76L164.04 42.06 162.42 42.06 162.42 39.48 163.26 39.48C164.16 39.48 164.4 39.06 164.4 38.22L164.4 36.3 167.34 36.3 167.34 39.48 169.68 39.48 169.68 42.06 167.34 42.06 167.34 48.6 169.5 48.6 169.5 51.18 167.52 51.18Z" fill="#212221" transform="matrix(1.01167 0 0 1 560.121 222)"/><path d="M180.54 51.18C179.34 51.18 178.5 50.4 178.32 49.14L178.2 49.14C177.84 50.64 176.58 51.48 174.78 51.48 172.44 51.48 171.18 50.1 171.18 48.06 171.18 45.6 173.1 44.4 176.16 44.4L178.02 44.4 178.02 43.68C178.02 42.54 177.48 41.82 176.1 41.82 174.78 41.82 174.12 42.48 173.58 43.2L171.6 41.46C172.56 40.08 173.88 39.24 176.34 39.24 179.64 39.24 181.32 40.74 181.32 43.5L181.32 48.6 182.4 48.6 182.4 51.18 180.54 51.18ZM178.02 47.64 178.02 46.26 176.4 46.26C175.14 46.26 174.48 46.74 174.48 47.58L174.48 47.94C174.48 48.78 175.02 49.2 176.04 49.2 177.06 49.14 178.02 48.72 178.02 47.64Z" fill="#212221" transform="matrix(1.01167 0 0 1 560.121 222)"/><path d="M189.42 43.5C189.42 38.28 192.12 35.34 196.26 35.34 199.08 35.34 200.94 36.48 202.08 39L199.14 40.5C198.72 39.24 197.94 38.34 196.26 38.34 194.28 38.34 192.96 39.66 192.96 42.12L192.96 44.58C192.96 47.04 194.28 48.36 196.26 48.36 197.94 48.36 198.9 47.34 199.32 46.02L202.08 47.64C200.94 49.98 199.08 51.36 196.26 51.36 192.12 51.42 189.42 48.78 189.42 43.5Z" fill="#212221" transform="matrix(1.01167 0 0 1 560.121 222)"/><path d="M203.58 45.3C203.58 41.52 205.62 39.18 209.04 39.18 212.46 39.18 214.5 41.52 214.5 45.3 214.5 49.08 212.46 51.42 209.04 51.42 205.62 51.42 203.58 49.08 203.58 45.3ZM211.08 46.5 211.08 44.1C211.08 42.66 210.3 41.76 209.04 41.76 207.78 41.76 207 42.6 207 44.1L207 46.5C207 47.94 207.78 48.84 209.04 48.84 210.3 48.84 211.08 48 211.08 46.5Z" fill="#212221" transform="matrix(1.01167 0 0 1 560.121 222)"/><path d="M216.84 51.18 216.84 39.48 220.14 39.48 220.14 41.46 220.26 41.46C220.68 40.2 221.64 39.24 223.38 39.24 225 39.24 226.14 40.08 226.62 41.58L226.68 41.58C227.1 40.26 228.48 39.24 230.22 39.24 232.44 39.24 233.7 40.92 233.7 43.86L233.7 51.18 230.4 51.18 230.4 44.1C230.4 42.6 229.86 41.88 228.78 41.88 227.82 41.88 226.86 42.42 226.86 43.62L226.86 51.18 223.56 51.18 223.56 44.1C223.56 42.6 223.02 41.88 221.94 41.88 220.98 41.88 220.02 42.42 220.02 43.62L220.02 51.18 216.84 51.18Z" fill="#212221" transform="matrix(1.01167 0 0 1 560.121 222)"/><path d="M236.7 51.18 236.7 39.48 240 39.48 240 41.46 240.12 41.46C240.54 40.2 241.5 39.24 243.24 39.24 244.86 39.24 246 40.08 246.48 41.58L246.54 41.58C246.96 40.26 248.34 39.24 250.08 39.24 252.3 39.24 253.56 40.92 253.56 43.86L253.56 51.18 250.26 51.18 250.26 44.1C250.26 42.6 249.72 41.88 248.64 41.88 247.68 41.88 246.72 42.42 246.72 43.62L246.72 51.18 243.42 51.18 243.42 44.1C243.42 42.6 242.88 41.88 241.8 41.88 240.84 41.88 239.88 42.42 239.88 43.62L239.88 51.18 236.7 51.18Z" fill="#212221" transform="matrix(1.01167 0 0 1 560.121 222)"/><path d="M263.46 49.2 263.34 49.2C262.92 50.4 261.96 51.42 260.1 51.42 257.7 51.42 256.44 49.74 256.44 46.8L256.44 39.48 259.74 39.48 259.74 46.5C259.74 47.94 260.22 48.72 261.42 48.72 262.44 48.72 263.46 48.12 263.46 47.04L263.46 39.48 266.76 39.48 266.76 51.12 263.46 51.12 263.46 49.2Z" fill="#212221" transform="matrix(1.01167 0 0 1 560.121 222)"/><path d="M269.82 51.18 269.82 39.48 273.12 39.48 273.12 41.46 273.24 41.46C273.66 40.26 274.62 39.24 276.48 39.24 278.88 39.24 280.14 40.92 280.14 43.86L280.14 51.18 276.84 51.18 276.84 44.1C276.84 42.6 276.42 41.88 275.22 41.88 274.14 41.88 273.12 42.42 273.12 43.62L273.12 51.18 269.82 51.18Z" fill="#212221" transform="matrix(1.01167 0 0 1 560.121 222)"/><path d="M282.84 36.66 282.84 36.18C282.84 35.22 283.44 34.56 284.76 34.56 286.08 34.56 286.68 35.22 286.68 36.18L286.68 36.66C286.68 37.62 286.08 38.28 284.76 38.28 283.38 38.28 282.84 37.56 282.84 36.66ZM283.08 39.48 286.38 39.48 286.38 51.12 283.08 51.12 283.08 39.48Z" fill="#212221" transform="matrix(1.01167 0 0 1 560.121 222)"/><path d="M293.52 51.18C291.24 51.18 290.04 49.98 290.04 47.76L290.04 42.06 288.42 42.06 288.42 39.48 289.26 39.48C290.16 39.48 290.4 39.06 290.4 38.22L290.4 36.3 293.34 36.3 293.34 39.48 295.68 39.48 295.68 42.06 293.34 42.06 293.34 48.6 295.5 48.6 295.5 51.18 293.52 51.18Z" fill="#212221" transform="matrix(1.01167 0 0 1 560.121 222)"/><path d="M305.1 39.48 308.16 39.48 303.66 52.92C303.06 54.72 302.1 55.56 300.06 55.56L298.02 55.56 298.02 52.98 300.24 52.98 300.66 51.72 296.58 39.48 299.82 39.48 301.56 44.94 302.4 48.3 302.52 48.3 303.36 44.94 305.1 39.48Z" fill="#212221" transform="matrix(1.01167 0 0 1 560.121 222)"/><path d="M134.7 69.24 136.92 67.02C137.94 68.22 139.32 68.82 140.82 68.82 142.44 68.82 143.28 68.1 143.28 66.96 143.28 66.12 142.92 65.52 141.48 65.28L139.92 65.1C136.68 64.68 135.18 63.06 135.18 60.48 135.18 57.72 137.34 55.74 141 55.74 143.34 55.74 145.14 56.52 146.4 57.9L144.18 60.18C143.46 59.34 142.44 58.74 140.82 58.74 139.32 58.74 138.6 59.34 138.6 60.24 138.6 61.32 139.14 61.68 140.46 61.92L142.02 62.16C145.2 62.7 146.76 64.08 146.76 66.78 146.76 69.78 144.6 71.82 140.7 71.82 137.88 71.76 136.02 70.68 134.7 69.24Z" fill="#212221" transform="matrix(1.01167 0 0 1 560.121 222)"/><path d="M152.64 55.98 152.64 65.52C152.64 67.68 153.42 68.76 155.46 68.76 157.44 68.76 158.28 67.68 158.28 65.52L158.28 55.98 161.58 55.98 161.58 65.16C161.58 69.72 159.96 71.76 155.46 71.76 151.02 71.76 149.4 69.72 149.4 65.16L149.4 55.98 152.64 55.98Z" fill="#212221" transform="matrix(1.01167 0 0 1 560.121 222)"/><path d="M176.46 61.32 176.4 61.32 175.26 63.6 172.26 69.06 169.32 63.6 168.12 61.14 168.06 61.14 168.06 71.46 164.88 71.46 164.88 55.98 168.48 55.98 172.26 63.24 172.32 63.24 176.1 55.98 179.7 55.98 179.7 71.52 176.52 71.52 176.52 61.32Z" fill="#212221" transform="matrix(1.01167 0 0 1 560.121 222)"/><path d="M194.7 61.32 194.64 61.32 193.5 63.6 190.5 69.06 187.56 63.6 186.36 61.14 186.3 61.14 186.3 71.46 183.12 71.46 183.12 55.98 186.72 55.98 190.5 63.24 190.56 63.24 194.34 55.98 197.94 55.98 197.94 71.52 194.76 71.52 194.76 61.32Z" fill="#212221" transform="matrix(1.01167 0 0 1 560.121 222)"/><path d="M200.7 71.46 200.7 68.76 202.68 68.76 202.68 58.68 200.7 58.68 200.7 55.98 208.08 55.98 208.08 58.68 206.1 58.68 206.1 68.82 208.08 68.82 208.08 71.52 200.7 71.52Z" fill="#212221" transform="matrix(1.01167 0 0 1 560.121 222)"/><path d="M217.26 58.98 217.26 71.52 213.9 71.52 213.9 58.98 209.7 58.98 209.7 55.98 221.46 55.98 221.46 58.98 217.26 58.98Z" fill="#212221" transform="matrix(1.01167 0 0 1 560.121 222)"/><path d="M237.3 71.46 227.34 71.46 227.34 70.08 232.74 64.86C234.18 63.48 235.2 61.92 235.2 60.36L235.2 60C235.2 58.2 234.12 56.88 232.02 56.88 229.98 56.88 228.96 58.02 228.42 59.7L227.22 59.28C227.82 57.42 229.2 55.74 232.02 55.74 234.96 55.74 236.58 57.54 236.58 60.18 236.58 62.4 235.38 64.08 233.52 65.82L228.72 70.38 237.24 70.38 237.24 71.46Z" fill="#212221" transform="matrix(1.01167 0 0 1 560.121 222)"/><path d="M240.36 63.72C240.36 58.38 242.1 55.68 245.58 55.68 249.12 55.68 250.8 58.38 250.8 63.72 250.8 69.06 249.06 71.76 245.58 71.76 242.04 71.76 240.36 69.06 240.36 63.72ZM249.42 64.74 249.42 62.64C249.42 59.04 248.22 56.82 245.58 56.82 242.94 56.82 241.74 59.04 241.74 62.64L241.74 64.74C241.74 68.34 242.94 70.56 245.58 70.56 248.22 70.62 249.42 68.4 249.42 64.74Z" fill="#212221" transform="matrix(1.01167 0 0 1 560.121 222)"/><path d="M264 71.46 254.04 71.46 254.04 70.08 259.44 64.86C260.88 63.48 261.9 61.92 261.9 60.36L261.9 60C261.9 58.2 260.82 56.88 258.72 56.88 256.68 56.88 255.66 58.02 255.12 59.7L253.92 59.28C254.52 57.42 255.9 55.74 258.72 55.74 261.66 55.74 263.28 57.54 263.28 60.18 263.28 62.4 262.08 64.08 260.22 65.82L255.42 70.38 264 70.38 264 71.46Z" fill="#212221" transform="matrix(1.01167 0 0 1 560.121 222)"/><path d="M267.6 71.46 267.6 70.26 272.16 70.26 272.16 56.94 272.04 56.94 267.78 60.72 267 59.88 271.44 55.92 273.48 55.92 273.48 70.26 277.74 70.26 277.74 71.46 267.6 71.46Z" fill="#212221" transform="matrix(1.01167 0 0 1 560.121 222)"/><path d="M90.54 18.24 109.98 51.9 120.12 69.42C123.9 75.96 121.68 84.36 115.08 88.14 108.54 91.92 100.14 89.7 96.36 83.1L91.02 73.86 65.76 30.12C64.38 27.72 62.16 27.36 60.96 27.36 60 27.36 58.38 27.6 57.06 28.92 56.76 29.28 56.4 29.64 56.16 30.12L25.62 83.04C21.84 89.58 13.44 91.86 6.9 88.08 2.46 85.62 0 81 0 76.26 0 73.92 0.6 71.58 1.86 69.42L32.4 16.5C38.34 6.18 49.02 0 60.96 0 72.9 0 83.58 6.18 89.52 16.5L90.54 18.24ZM50.22 26.76C50.22 26.76 50.22 26.7 50.28 26.7 50.7 25.98 51.24 25.26 51.78 24.66 52.86 23.22 54.06 21.78 55.38 20.46 60.66 15.18 67.26 11.76 74.28 10.44 70.38 8.16 65.82 6.9 61.02 6.9 51.54 6.9 43.08 11.76 38.4 19.98L7.8 72.9C7.2 73.98 6.9 75.12 6.9 76.32 6.9 78.78 8.22 81.06 10.32 82.26 13.62 84.18 17.82 83.04 19.68 79.74L50.22 26.76Z" fill="url(#fill1)" transform="matrix(1.01167 0 0 1 560.121 222)"/></g></svg>